<?xml version="1.0" encoding="UTF-8" standalone="no"?>
<!DOCTYPE svg PUBLIC "-//W3C//DTD SVG 1.1//EN" "http://www.w3.org/Graphics/SVG/1.1/DTD/svg11.dtd">
<svg width="100%" height="100%" viewBox="0 0 64 64" version="1.1" xmlns="http://www.w3.org/2000/svg" xmlns:xlink="http://www.w3.org/1999/xlink" xml:space="preserve" xmlns:serif="http://www.serif.com/" style="fill-rule:evenodd;clip-rule:evenodd;stroke-linejoin:round;stroke-miterlimit:2;">
    <g transform="matrix(0.250001,0,0,0.250001,7.04639e-05,-0.000229128)">
        <path d="M70.534,69.696L53.988,53.15L54.058,172.75L54.256,178.34C54.338,180.97 54.826,183.938 55.64,187.014L186.744,233.244L219.516,218.724L219.528,218.684L70.534,69.696" style="fill:rgb(0,210,184);fill-rule:nonzero;"/>
        <path d="M55.64,187.014L55.648,187.022C55.64,186.968 55.612,186.908 55.612,186.852C55.612,186.908 55.62,186.96 55.64,187.014ZM219.516,218.724L186.744,233.244L55.648,187.022C58.152,196.63 63.696,207.43 69.662,213.336L112.446,255.876L207.576,256L219.528,218.684L219.516,218.724Z" style="fill:rgb(85,221,202);fill-rule:nonzero;"/>
        <path d="M3.034,130.116C-1.202,134.638 0.902,143.966 7.722,150.838L37.14,180.5L55.64,187.014C54.826,183.938 54.338,180.97 54.256,178.34L54.058,172.75L53.988,53.15L3.034,130.116Z" style="fill:rgb(0,129,198);fill-rule:nonzero;"/>
        <path d="M187.82,54.686C184.744,53.9 181.794,53.414 179.12,53.33L173.212,53.126L53.988,53.142L219.544,218.684L219.558,218.684L234.098,185.88L187.82,54.686" style="fill:rgb(0,121,179);fill-rule:nonzero;"/>
        <path d="M187.67,54.654C187.734,54.668 187.784,54.686 187.826,54.692L187.82,54.686C187.784,54.668 187.734,54.668 187.67,54.654ZM214.118,68.732C208.11,62.674 197.452,57.168 187.826,54.692L234.098,185.88L219.558,218.684L219.544,218.684L255.076,207.336L255.152,109.92L214.118,68.732Z" style="fill:rgb(0,164,228);fill-rule:nonzero;"/>
        <path d="M181.338,36.298L151.684,6.862C144.826,0.068 135.494,-2.046 130.984,2.178L53.988,53.142L173.212,53.126L179.12,53.33C181.794,53.414 184.744,53.9 187.82,54.686L181.338,36.298Z" style="fill:rgb(0,210,184);fill-rule:nonzero;"/>
    </g>
</svg>
