<?xml version="1.0" encoding="UTF-8" standalone="no"?>
<!DOCTYPE svg PUBLIC "-//W3C//DTD SVG 1.1//EN" "http://www.w3.org/Graphics/SVG/1.1/DTD/svg11.dtd">
<svg width="100%" height="100%" viewBox="0 0 64 64" version="1.1" xmlns="http://www.w3.org/2000/svg" xmlns:xlink="http://www.w3.org/1999/xlink" xml:space="preserve" xmlns:serif="http://www.serif.com/" style="fill-rule:evenodd;clip-rule:evenodd;stroke-linejoin:round;stroke-miterlimit:2;">
    <g transform="matrix(0.222498,0,0,0.222498,3.52032,3.10862e-15)">
        <path d="M152.576,32.963L211.722,67.112C213.388,65.348 215.333,63.791 217.54,62.509C229.806,55.457 245.452,59.644 252.577,71.911C259.629,84.178 255.442,99.823 243.175,106.948C240.985,108.207 238.685,109.108 236.344,109.668L236.344,177.993C238.66,178.555 240.934,179.45 243.102,180.695C255.442,187.82 259.629,203.466 252.504,215.733C245.452,227.999 229.733,232.186 217.466,225.135C215.024,223.731 212.902,221.983 211.125,219.988L152.34,253.929C153.181,256.468 153.635,259.184 153.635,262.008C153.635,276.111 142.177,287.644 128,287.644C113.823,287.644 102.365,276.185 102.365,262.008C102.365,259.488 102.727,257.054 103.402,254.755L44.271,220.615C42.624,222.345 40.705,223.873 38.534,225.135C26.194,232.186 10.548,227.999 3.496,215.733C-3.555,203.466 0.632,187.82 12.898,180.695C15.067,179.449 17.342,178.553 19.656,177.992L19.656,109.668C17.315,109.108 15.015,108.207 12.825,106.948C0.558,99.897 -3.629,84.178 3.423,71.911C10.475,59.644 26.194,55.457 38.46,62.509C40.655,63.784 42.591,65.331 44.251,67.084L103.413,32.925C102.731,30.615 102.365,28.169 102.365,25.635C102.365,11.459 113.823,0 128,0C142.177,0 153.635,11.459 153.635,25.635C153.635,28.183 153.265,30.642 152.576,32.963ZM146.414,43.485L205.701,77.715C203.868,84.152 204.541,91.289 208.138,97.546C211.747,103.824 217.626,107.986 224.151,109.608L224.151,178.018C223.818,178.099 223.487,178.188 223.158,178.282L145.725,44.169C145.959,43.945 146.189,43.717 146.414,43.485ZM110.291,44.184L32.859,178.296C32.525,178.198 32.188,178.108 31.849,178.024L31.849,109.608C38.374,107.986 44.253,103.824 47.862,97.546C51.467,91.276 52.135,84.123 50.289,77.677L109.559,43.456C109.798,43.704 110.042,43.946 110.291,44.184ZM135.163,50.26L212.577,184.341C210.844,185.993 209.317,187.918 208.064,190.097C206.818,192.265 205.923,194.539 205.362,196.855L50.64,196.855C50.078,194.541 49.183,192.266 47.936,190.097C46.678,187.931 45.154,186.017 43.43,184.373L120.859,50.266C123.125,50.92 125.521,51.27 128,51.27C130.487,51.27 132.89,50.918 135.163,50.26ZM146.958,244.738L205.86,210.73C205.683,210.175 205.525,209.614 205.387,209.048L50.607,209.048C50.525,209.381 50.436,209.711 50.341,210.04L109.532,244.215C114.192,239.379 120.74,236.373 128,236.373C135.518,236.373 142.272,239.596 146.958,244.738Z" style="fill:rgb(229,53,171);"/>
    </g>
</svg>
