<?xml version="1.0" encoding="UTF-8" standalone="no"?>
<!DOCTYPE svg PUBLIC "-//W3C//DTD SVG 1.1//EN" "http://www.w3.org/Graphics/SVG/1.1/DTD/svg11.dtd">
<svg width="100%" height="100%" viewBox="0 0 64 64" version="1.1" xmlns="http://www.w3.org/2000/svg" xmlns:xlink="http://www.w3.org/1999/xlink" xml:space="preserve" xmlns:serif="http://www.serif.com/" style="fill-rule:evenodd;clip-rule:evenodd;stroke-linejoin:round;stroke-miterlimit:2;">
    <g transform="matrix(1,0,0,1,-0.363253,-0.31565)">
        <g transform="matrix(0.165845,0,0,0.165845,-0.0568892,18.8474)">
            <path d="M45.253,138.483C48.118,142.295 51.842,145.378 56.121,147.481C60.749,149.773 65.857,150.933 71.021,150.863C75.197,150.972 79.354,150.263 83.257,148.776C86.379,147.55 89.166,145.601 91.39,143.09C93.477,140.644 95.001,137.768 95.853,134.668C96.782,131.317 97.242,127.853 97.22,124.376L97.22,112.284L96.933,112.284C94.227,116.574 90.322,119.977 85.703,122.073C81.299,123.99 76.543,124.971 71.74,124.952C67.033,124.987 62.364,124.107 57.993,122.361C53.854,120.718 50.067,118.299 46.836,115.235C43.63,112.157 41.083,108.458 39.35,104.365C37.506,100.044 36.575,95.388 36.615,90.69C36.575,86.006 37.456,81.359 39.207,77.014C40.862,72.903 43.28,69.142 46.332,65.93C49.384,62.744 53.059,60.22 57.129,58.516C61.484,56.706 66.161,55.799 70.877,55.853C73.024,55.865 75.167,56.058 77.282,56.428C79.608,56.834 81.879,57.511 84.048,58.444C89.198,60.676 93.65,64.258 96.933,68.81L97.22,68.81L97.22,57.58L106.722,57.58L106.722,124.376C106.69,128.301 106.231,132.21 105.354,136.036C104.437,140.172 102.618,144.055 100.028,147.408C97.081,151.107 93.309,154.065 89.015,156.047C84.312,158.349 78.169,159.5 70.588,159.5C64.43,159.605 58.312,158.48 52.594,156.19C47.124,153.846 42.216,150.362 38.2,145.97L45.253,138.483ZM46.98,90.403C46.956,93.834 47.617,97.235 48.924,100.407C50.17,103.451 51.976,106.234 54.249,108.612C56.509,110.969 59.196,112.874 62.167,114.227C65.262,115.634 68.628,116.346 72.028,116.314C78.759,116.338 85.251,113.788 90.166,109.189C92.581,106.911 94.472,104.135 95.709,101.054C97.042,97.667 97.655,94.04 97.509,90.403C97.533,86.991 96.948,83.603 95.781,80.397C94.672,77.35 92.958,74.559 90.742,72.192C88.464,69.792 85.721,67.882 82.681,66.578C79.314,65.147 75.686,64.436 72.028,64.49C68.628,64.459 65.262,65.172 62.167,66.578C59.197,67.932 56.51,69.837 54.249,72.192C51.977,74.57 50.17,77.353 48.923,80.397C47.617,83.57 46.956,86.972 46.98,90.403ZM145.444,124.952L135.08,124.952L135.08,23.03L166.462,23.03C176.827,23.03 185.008,25.285 191.006,29.796C197.003,34.308 200.003,41.122 200.004,50.238C200.186,56.853 197.784,63.285 193.31,68.16C188.847,73.007 182.393,75.814 173.948,76.581L203.315,124.951L190.646,124.951L162.72,77.59L145.445,77.59L145.444,124.952ZM145.444,68.089L163.871,68.089C167.83,68.172 171.781,67.687 175.603,66.649C178.398,65.902 181.016,64.605 183.305,62.835C185.151,61.349 186.588,59.417 187.479,57.221C188.355,54.998 188.795,52.627 188.775,50.238C188.786,47.897 188.346,45.576 187.479,43.401C186.578,41.19 185.144,39.237 183.305,37.714C181.038,35.909 178.412,34.608 175.603,33.899C171.773,32.913 167.826,32.453 163.871,32.532L145.444,32.532L145.444,68.089ZM221.163,23.03L250.819,23.03C261.183,23.03 269.364,25.286 275.362,29.797C281.359,34.309 284.359,41.123 284.36,50.239C284.36,59.358 281.361,66.195 275.362,70.752C269.364,75.311 261.183,77.591 250.819,77.59L231.529,77.59L231.529,124.952L221.163,124.952L221.163,23.03ZM231.53,68.09L248.229,68.09C252.188,68.173 256.139,67.688 259.961,66.65C262.756,65.902 265.374,64.606 267.663,62.836C269.509,61.35 270.946,59.418 271.837,57.222C272.713,54.999 273.153,52.628 273.133,50.239C273.144,47.898 272.704,45.577 271.837,43.402C270.935,41.192 269.501,39.238 267.663,37.715C265.396,35.91 262.77,34.609 259.961,33.9C256.131,32.914 252.184,32.454 248.229,32.533L231.529,32.533L231.53,68.09ZM388.437,108.829C386.613,111.531 384.462,113.997 382.033,116.171C379.403,118.534 376.475,120.542 373.323,122.144C369.958,123.862 366.409,125.191 362.743,126.104C358.811,127.08 354.772,127.563 350.721,127.543C343.494,127.611 336.326,126.241 329.633,123.513C316.874,118.357 306.756,108.213 301.633,95.441C298.89,88.626 297.521,81.336 297.603,73.991C297.521,66.646 298.89,59.356 301.633,52.541C306.756,39.77 316.874,29.626 329.633,24.471C336.325,21.743 343.494,20.372 350.721,20.44C357.235,20.475 363.683,21.745 369.724,24.182C376.166,26.76 381.789,31.04 385.99,36.563L376.922,43.329C375.704,41.514 374.251,39.868 372.602,38.434C370.697,36.747 368.595,35.298 366.342,34.116C363.934,32.848 361.401,31.835 358.783,31.093C356.163,30.335 353.449,29.947 350.721,29.941C344.674,29.842 338.679,31.07 333.159,33.54C328.151,35.812 323.666,39.096 319.988,43.184C316.347,47.284 313.536,52.051 311.709,57.221C307.872,68.069 307.872,79.913 311.709,90.761C313.535,95.931 316.347,100.698 319.988,104.797C323.665,108.887 328.15,112.171 333.159,114.442C338.679,116.913 344.674,118.142 350.721,118.042C353.401,118.043 356.075,117.802 358.711,117.322C361.393,116.829 364.004,116.007 366.485,114.875C369.1,113.675 371.525,112.099 373.683,110.195C376.107,108.03 378.215,105.535 379.944,102.783L388.437,108.829Z" style="fill:rgb(36,75,90);fill-rule:nonzero;"/>
        </g>
        <g transform="matrix(0.165845,0,0,0.165845,-0.0568892,18.8474)">
            <clipPath id="_clip1">
                <path d="M29.376,56.4L2.534,29.756L29.178,2.913L56.02,29.557L29.376,56.4Z"/>
            </clipPath>
            <g clip-path="url(#_clip1)">
                <path d="M3.006,2.913L2.533,7.101L2.533,2.913L3.006,2.913Z" style="fill:rgb(117,202,202);fill-rule:nonzero;"/>
                <path d="M3.632,2.913L2.533,12.635L2.533,7.101L3.006,2.913L3.632,2.913Z" style="fill:rgb(116,203,202);fill-rule:nonzero;"/>
                <path d="M4.257,2.913L2.533,18.168L2.533,12.635L3.632,2.913L4.257,2.913Z" style="fill:rgb(116,203,202);fill-rule:nonzero;"/>
                <path d="M4.882,2.913L2.533,23.702L2.533,18.168L4.257,2.913L4.882,2.913Z" style="fill:rgb(115,203,202);fill-rule:nonzero;"/>
                <path d="M5.507,2.913L2.533,29.236L2.533,23.702L4.882,2.913L5.507,2.913Z" style="fill:rgb(115,203,202);fill-rule:nonzero;"/>
                <path d="M6.133,2.913L2.533,34.77L2.533,29.236L5.507,2.913L6.133,2.913ZM6.758,2.913L2.533,40.303L2.533,34.77L6.133,2.913L6.758,2.913Z" style="fill:rgb(114,201,201);fill-rule:nonzero;"/>
                <path d="M7.383,2.913L2.533,45.837L2.533,40.303L6.758,2.913L7.383,2.913Z" style="fill:rgb(112,202,202);fill-rule:nonzero;"/>
                <path d="M8.008,2.913L2.533,51.371L2.533,45.837L7.383,2.913L8.008,2.913Z" style="fill:rgb(112,202,202);fill-rule:nonzero;"/>
                <path d="M8.634,2.913L2.594,56.367L2.533,56.36L2.533,51.371L8.008,2.913L8.634,2.913Z" style="fill:rgb(111,202,200);fill-rule:nonzero;"/>
                <path d="M9.259,2.913L3.215,56.4L2.884,56.4L2.594,56.367L8.634,2.913L9.259,2.913Z" style="fill:rgb(110,200,200);fill-rule:nonzero;"/>
                <path d="M9.884,2.913L3.841,56.4L3.215,56.4L9.259,2.913L9.884,2.913Z" style="fill:rgb(110,200,200);fill-rule:nonzero;"/>
                <path d="M10.51,2.913L4.466,56.4L3.841,56.4L9.884,2.913L10.51,2.913Z" style="fill:rgb(108,201,201);fill-rule:nonzero;"/>
                <path d="M11.135,2.913L5.091,56.4L4.466,56.4L10.51,2.913L11.135,2.913Z" style="fill:rgb(109,201,200);fill-rule:nonzero;"/>
                <path d="M11.76,2.913L5.717,56.4L5.091,56.4L11.135,2.913L11.76,2.913Z" style="fill:rgb(105,199,200);fill-rule:nonzero;"/>
                <path d="M12.385,2.913L6.342,56.4L5.717,56.4L11.76,2.913L12.385,2.913Z" style="fill:rgb(105,199,200);fill-rule:nonzero;"/>
                <path d="M13.011,2.913L6.967,56.4L6.342,56.4L12.385,2.913L13.011,2.913Z" style="fill:rgb(105,200,199);fill-rule:nonzero;"/>
                <path d="M13.636,2.913L7.592,56.4L6.967,56.4L13.011,2.913L13.636,2.913Z" style="fill:rgb(104,200,199);fill-rule:nonzero;"/>
                <path d="M14.261,2.913L8.218,56.4L7.592,56.4L13.636,2.913L14.261,2.913Z" style="fill:rgb(103,199,199);fill-rule:nonzero;"/>
                <path d="M14.886,2.913L8.843,56.4L8.218,56.4L14.261,2.913L14.886,2.913Z" style="fill:rgb(101,199,199);fill-rule:nonzero;"/>
                <path d="M15.512,2.913L9.468,56.4L8.843,56.4L14.886,2.913L15.512,2.913Z" style="fill:rgb(100,199,199);fill-rule:nonzero;"/>
                <path d="M16.137,2.913L10.093,56.4L9.468,56.4L15.512,2.913L16.137,2.913Z" style="fill:rgb(99,198,198);fill-rule:nonzero;"/>
                <path d="M16.762,2.913L10.719,56.4L10.093,56.4L16.137,2.913L16.762,2.913Z" style="fill:rgb(96,198,198);fill-rule:nonzero;"/>
                <path d="M17.387,2.913L11.344,56.4L10.719,56.4L16.762,2.913L17.387,2.913Z" style="fill:rgb(96,198,197);fill-rule:nonzero;"/>
                <path d="M18.013,2.913L11.969,56.4L11.344,56.4L17.387,2.913L18.013,2.913Z" style="fill:rgb(95,198,197);fill-rule:nonzero;"/>
                <path d="M18.638,2.913L12.594,56.4L11.969,56.4L18.013,2.913L18.638,2.913Z" style="fill:rgb(92,197,196);fill-rule:nonzero;"/>
                <path d="M19.263,2.913L13.22,56.4L12.594,56.4L18.638,2.913L19.263,2.913Z" style="fill:rgb(90,197,196);fill-rule:nonzero;"/>
                <path d="M19.888,2.913L13.845,56.4L13.22,56.4L19.263,2.913L19.888,2.913Z" style="fill:rgb(90,197,196);fill-rule:nonzero;"/>
                <path d="M20.514,2.913L14.47,56.4L13.845,56.4L19.888,2.913L20.514,2.913Z" style="fill:rgb(87,196,196);fill-rule:nonzero;"/>
                <path d="M21.139,2.913L15.095,56.4L14.47,56.4L20.514,2.913L21.139,2.913Z" style="fill:rgb(88,196,195);fill-rule:nonzero;"/>
                <path d="M21.764,2.913L15.721,56.4L15.095,56.4L21.139,2.913L21.764,2.913Z" style="fill:rgb(85,196,195);fill-rule:nonzero;"/>
                <path d="M22.389,2.913L16.346,56.4L15.721,56.4L21.764,2.913L22.389,2.913Z" style="fill:rgb(83,195,194);fill-rule:nonzero;"/>
                <path d="M23.015,2.913L16.971,56.4L16.346,56.4L22.389,2.913L23.015,2.913Z" style="fill:rgb(82,195,194);fill-rule:nonzero;"/>
                <path d="M23.64,2.913L17.596,56.4L16.971,56.4L23.015,2.913L23.64,2.913Z" style="fill:rgb(80,195,194);fill-rule:nonzero;"/>
                <path d="M24.265,2.913L18.222,56.4L17.596,56.4L23.64,2.913L24.265,2.913Z" style="fill:rgb(80,193,192);fill-rule:nonzero;"/>
                <path d="M24.891,2.913L18.847,56.4L18.222,56.4L24.265,2.913L24.891,2.913Z" style="fill:rgb(75,194,192);fill-rule:nonzero;"/>
                <path d="M25.516,2.913L19.472,56.4L18.847,56.4L24.891,2.913L25.516,2.913Z" style="fill:rgb(76,193,192);fill-rule:nonzero;"/>
                <path d="M26.141,2.913L20.097,56.4L19.472,56.4L25.516,2.913L26.141,2.913Z" style="fill:rgb(71,193,190);fill-rule:nonzero;"/>
                <path d="M26.766,2.913L20.723,56.4L20.097,56.4L26.141,2.913L26.766,2.913Z" style="fill:rgb(70,192,190);fill-rule:nonzero;"/>
                <path d="M27.392,2.913L21.348,56.4L20.723,56.4L26.766,2.913L27.392,2.913Z" style="fill:rgb(67,192,190);fill-rule:nonzero;"/>
                <path d="M28.017,2.913L21.973,56.4L21.348,56.4L27.392,2.913L28.017,2.913Z" style="fill:rgb(64,191,189);fill-rule:nonzero;"/>
                <path d="M28.642,2.913L22.599,56.4L21.973,56.4L28.017,2.913L28.642,2.913Z" style="fill:rgb(59,191,189);fill-rule:nonzero;"/>
                <path d="M29.267,2.913L23.224,56.4L22.599,56.4L28.642,2.913L29.267,2.913Z" style="fill:rgb(57,191,188);fill-rule:nonzero;"/>
                <path d="M29.893,2.913L23.849,56.4L23.224,56.4L29.267,2.913L29.893,2.913Z" style="fill:rgb(52,190,189);fill-rule:nonzero;"/>
                <path d="M30.518,2.913L24.474,56.4L23.849,56.4L29.893,2.913L30.518,2.913Z" style="fill:rgb(50,190,187);fill-rule:nonzero;"/>
                <path d="M31.143,2.913L25.1,56.4L24.474,56.4L30.518,2.913L31.143,2.913Z" style="fill:rgb(45,189,187);fill-rule:nonzero;"/>
                <path d="M31.768,2.913L25.725,56.4L25.1,56.4L31.143,2.913L31.768,2.913Z" style="fill:rgb(36,188,187);fill-rule:nonzero;"/>
                <path d="M32.394,2.913L26.35,56.4L25.725,56.4L31.768,2.913L32.394,2.913Z" style="fill:rgb(33,188,185);fill-rule:nonzero;"/>
                <path d="M33.019,2.913L26.975,56.4L26.35,56.4L32.394,2.913L33.019,2.913Z" style="fill:rgb(24,187,185);fill-rule:nonzero;"/>
                <path d="M33.644,2.913L27.601,56.4L26.975,56.4L33.019,2.913L33.644,2.913Z" style="fill:rgb(15,186,185);fill-rule:nonzero;"/>
                <path d="M34.269,2.913L28.226,56.4L27.601,56.4L33.644,2.913L34.269,2.913Z" style="fill:rgb(3,187,184);fill-rule:nonzero;"/>
                <path d="M34.895,2.913L28.851,56.4L28.226,56.4L34.269,2.913L34.895,2.913Z" style="fill:rgb(6,184,182);fill-rule:nonzero;"/>
                <path d="M35.52,2.913L29.476,56.4L28.851,56.4L34.895,2.913L35.52,2.913Z" style="fill:rgb(6,184,182);fill-rule:nonzero;"/>
                <path d="M36.145,2.913L30.102,56.4L29.476,56.4L35.52,2.913L36.145,2.913Z" style="fill:rgb(3,183,181);fill-rule:nonzero;"/>
                <path d="M36.77,2.913L30.727,56.4L30.102,56.4L36.145,2.913L36.77,2.913Z" style="fill:rgb(4,183,180);fill-rule:nonzero;"/>
                <path d="M37.396,2.913L31.352,56.4L30.727,56.4L36.77,2.913L37.396,2.913Z" style="fill:rgb(0,182,181);fill-rule:nonzero;"/>
                <path d="M38.021,2.913L31.977,56.4L31.352,56.4L37.396,2.913L38.021,2.913Z" style="fill:rgb(3,182,180);fill-rule:nonzero;"/>
                <path d="M38.646,2.913L32.603,56.4L31.977,56.4L38.021,2.913L38.646,2.913Z" style="fill:rgb(5,182,178);fill-rule:nonzero;"/>
                <path d="M39.271,2.913L33.228,56.4L32.603,56.4L38.646,2.913L39.271,2.913Z" style="fill:rgb(1,181,177);fill-rule:nonzero;"/>
                <path d="M39.897,2.913L33.853,56.4L33.228,56.4L39.271,2.913L39.897,2.913Z" style="fill:rgb(1,181,177);fill-rule:nonzero;"/>
                <path d="M40.522,2.913L34.478,56.4L33.853,56.4L39.897,2.913L40.522,2.913Z" style="fill:rgb(0,180,177);fill-rule:nonzero;"/>
                <path d="M41.147,2.913L35.104,56.4L34.478,56.4L40.522,2.913L41.147,2.913Z" style="fill:rgb(0,179,176);fill-rule:nonzero;"/>
                <path d="M41.773,2.913L35.729,56.4L35.104,56.4L41.147,2.913L41.773,2.913Z" style="fill:rgb(0,179,176);fill-rule:nonzero;"/>
                <path d="M42.398,2.913L36.354,56.4L35.729,56.4L41.773,2.913L42.398,2.913Z" style="fill:rgb(0,178,175);fill-rule:nonzero;"/>
                <path d="M43.023,2.913L36.979,56.4L36.354,56.4L42.398,2.913L43.023,2.913Z" style="fill:rgb(0,178,174);fill-rule:nonzero;"/>
                <path d="M43.648,2.913L37.605,56.4L36.979,56.4L43.023,2.913L43.648,2.913Z" style="fill:rgb(0,177,174);fill-rule:nonzero;"/>
                <path d="M44.274,2.913L38.23,56.4L37.605,56.4L43.648,2.913L44.274,2.913Z" style="fill:rgb(0,177,173);fill-rule:nonzero;"/>
                <path d="M44.899,2.913L38.855,56.4L38.23,56.4L44.274,2.913L44.899,2.913Z" style="fill:rgb(0,176,172);fill-rule:nonzero;"/>
                <path d="M45.524,2.913L39.481,56.4L38.855,56.4L44.899,2.913L45.524,2.913Z" style="fill:rgb(0,175,172);fill-rule:nonzero;"/>
                <path d="M55.67,2.913L56.02,2.952L56.02,56.4L39.481,56.4L45.524,2.913L55.67,2.913Z" style="fill:rgb(0,175,172);fill-rule:nonzero;"/>
            </g>
        </g>
        <g transform="matrix(0.165845,0,0,0.165845,-0.0568892,18.8474)">
            <clipPath id="_clip2">
                <path d="M102.419,45.027L86.674,29.399L102.302,13.654L118.047,29.282L102.419,45.027Z"/>
            </clipPath>
            <g clip-path="url(#_clip2)">
                <path d="M118.046,22.817L117.619,13.653L118.046,13.653L118.046,22.817Z" style="fill:rgb(117,202,202);fill-rule:nonzero;"/>
                <path d="M118.046,32.446L117.171,13.653L117.619,13.653L118.046,22.817L118.046,32.446Z" style="fill:rgb(116,203,202);fill-rule:nonzero;"/>
                <path d="M118.046,42.075L116.722,13.653L117.171,13.653L118.046,32.446L118.046,42.075Z" style="fill:rgb(116,203,202);fill-rule:nonzero;"/>
                <path d="M117.735,45.027L116.274,13.653L116.722,13.653L118.046,42.075L118.046,45.027L117.735,45.027Z" style="fill:rgb(115,203,202);fill-rule:nonzero;"/>
                <path d="M117.286,45.027L115.825,13.653L116.274,13.653L117.735,45.027L117.286,45.027ZM116.838,45.027L115.377,13.653L115.825,13.653L117.286,45.027L116.838,45.027Z" style="fill:rgb(114,201,201);fill-rule:nonzero;"/>
                <path d="M116.389,45.027L114.928,13.653L115.377,13.653L116.838,45.027L116.389,45.027Z" style="fill:rgb(112,202,202);fill-rule:nonzero;"/>
                <path d="M115.941,45.027L114.48,13.653L114.928,13.653L116.389,45.027L115.941,45.027Z" style="fill:rgb(111,202,200);fill-rule:nonzero;"/>
                <path d="M115.493,45.027L114.031,13.653L114.48,13.653L115.941,45.027L115.493,45.027Z" style="fill:rgb(110,200,200);fill-rule:nonzero;"/>
                <path d="M115.044,45.027L113.583,13.653L114.031,13.653L115.493,45.027L115.044,45.027Z" style="fill:rgb(110,200,200);fill-rule:nonzero;"/>
                <path d="M114.596,45.027L113.134,13.653L113.583,13.653L115.044,45.027L114.596,45.027Z" style="fill:rgb(108,201,201);fill-rule:nonzero;"/>
                <path d="M114.147,45.027L112.686,13.653L113.134,13.653L114.596,45.027L114.147,45.027Z" style="fill:rgb(109,201,200);fill-rule:nonzero;"/>
                <path d="M113.699,45.027L112.237,13.653L112.686,13.653L114.147,45.027L113.699,45.027Z" style="fill:rgb(105,199,200);fill-rule:nonzero;"/>
                <path d="M113.25,45.027L111.789,13.653L112.237,13.653L113.699,45.027L113.25,45.027Z" style="fill:rgb(105,199,200);fill-rule:nonzero;"/>
                <path d="M112.802,45.027L111.34,13.653L111.789,13.653L113.25,45.027L112.802,45.027Z" style="fill:rgb(105,200,199);fill-rule:nonzero;"/>
                <path d="M112.353,45.027L110.892,13.653L111.34,13.653L112.802,45.027L112.353,45.027Z" style="fill:rgb(104,200,199);fill-rule:nonzero;"/>
                <path d="M111.905,45.027L110.443,13.653L110.892,13.653L112.353,45.027L111.905,45.027Z" style="fill:rgb(103,199,199);fill-rule:nonzero;"/>
                <path d="M111.456,45.027L109.995,13.653L110.443,13.653L111.905,45.027L111.456,45.027Z" style="fill:rgb(101,199,199);fill-rule:nonzero;"/>
                <path d="M111.008,45.027L109.547,13.653L109.995,13.653L111.456,45.027L111.008,45.027Z" style="fill:rgb(100,199,199);fill-rule:nonzero;"/>
                <path d="M110.559,45.027L109.098,13.653L109.547,13.653L111.008,45.027L110.559,45.027Z" style="fill:rgb(99,198,198);fill-rule:nonzero;"/>
                <path d="M110.111,45.027L108.65,13.653L109.098,13.653L110.559,45.027L110.111,45.027Z" style="fill:rgb(96,198,198);fill-rule:nonzero;"/>
                <path d="M109.662,45.027L108.201,13.653L108.65,13.653L110.111,45.027L109.662,45.027Z" style="fill:rgb(96,198,197);fill-rule:nonzero;"/>
                <path d="M109.214,45.027L107.753,13.653L108.201,13.653L109.662,45.027L109.214,45.027Z" style="fill:rgb(95,198,197);fill-rule:nonzero;"/>
                <path d="M108.765,45.027L107.304,13.653L107.753,13.653L109.214,45.027L108.765,45.027Z" style="fill:rgb(95,198,197);fill-rule:nonzero;"/>
                <path d="M108.317,45.027L106.856,13.653L107.304,13.653L108.765,45.027L108.317,45.027Z" style="fill:rgb(92,197,196);fill-rule:nonzero;"/>
                <path d="M107.868,45.027L106.407,13.653L106.856,13.653L108.317,45.027L107.868,45.027Z" style="fill:rgb(90,197,196);fill-rule:nonzero;"/>
                <path d="M107.42,45.027L105.959,13.653L106.407,13.653L107.868,45.027L107.42,45.027Z" style="fill:rgb(90,197,196);fill-rule:nonzero;"/>
                <path d="M106.972,45.027L105.51,13.653L105.959,13.653L107.42,45.027L106.972,45.027Z" style="fill:rgb(87,196,196);fill-rule:nonzero;"/>
                <path d="M106.523,45.027L105.062,13.653L105.51,13.653L106.972,45.027L106.523,45.027Z" style="fill:rgb(88,196,195);fill-rule:nonzero;"/>
                <path d="M106.075,45.027L104.613,13.653L105.062,13.653L106.523,45.027L106.075,45.027Z" style="fill:rgb(85,196,195);fill-rule:nonzero;"/>
                <path d="M105.626,45.027L104.165,13.653L104.613,13.653L106.075,45.027L105.626,45.027ZM105.178,45.027L103.716,13.653L104.165,13.653L105.626,45.027L105.178,45.027Z" style="fill:rgb(83,195,194);fill-rule:nonzero;"/>
                <path d="M104.729,45.027L103.268,13.653L103.716,13.653L105.178,45.027L104.729,45.027Z" style="fill:rgb(82,195,194);fill-rule:nonzero;"/>
                <path d="M104.281,45.027L102.819,13.653L103.268,13.653L104.729,45.027L104.281,45.027Z" style="fill:rgb(80,195,194);fill-rule:nonzero;"/>
                <path d="M103.832,45.027L102.371,13.653L102.819,13.653L104.281,45.027L103.832,45.027Z" style="fill:rgb(80,193,192);fill-rule:nonzero;"/>
                <path d="M103.384,45.027L101.922,13.653L102.371,13.653L103.832,45.027L103.384,45.027Z" style="fill:rgb(77,194,193);fill-rule:nonzero;"/>
                <path d="M102.935,45.027L101.474,13.653L101.922,13.653L103.384,45.027L102.935,45.027Z" style="fill:rgb(76,194,192);fill-rule:nonzero;"/>
                <path d="M102.487,45.027L101.026,13.653L101.474,13.653L102.935,45.027L102.487,45.027Z" style="fill:rgb(75,192,191);fill-rule:nonzero;"/>
                <path d="M102.038,45.027L100.577,13.653L101.026,13.653L102.487,45.027L102.038,45.027Z" style="fill:rgb(71,193,190);fill-rule:nonzero;"/>
                <path d="M101.59,45.027L100.129,13.653L100.577,13.653L102.038,45.027L101.59,45.027Z" style="fill:rgb(70,192,190);fill-rule:nonzero;"/>
                <path d="M101.141,45.027L99.68,13.653L100.129,13.653L101.59,45.027L101.141,45.027Z" style="fill:rgb(67,192,190);fill-rule:nonzero;"/>
                <path d="M100.693,45.027L99.232,13.653L99.68,13.653L101.141,45.027L100.693,45.027Z" style="fill:rgb(65,192,190);fill-rule:nonzero;"/>
                <path d="M100.244,45.027L98.783,13.653L99.232,13.653L100.693,45.027L100.244,45.027Z" style="fill:rgb(64,191,189);fill-rule:nonzero;"/>
                <path d="M99.796,45.027L98.335,13.653L98.783,13.653L100.244,45.027L99.796,45.027Z" style="fill:rgb(59,191,189);fill-rule:nonzero;"/>
                <path d="M99.347,45.027L97.886,13.653L98.335,13.653L99.796,45.027L99.347,45.027Z" style="fill:rgb(60,191,188);fill-rule:nonzero;"/>
                <path d="M98.899,45.027L97.438,13.653L97.886,13.653L99.347,45.027L98.899,45.027Z" style="fill:rgb(57,191,188);fill-rule:nonzero;"/>
                <path d="M98.45,45.027L96.989,13.653L97.438,13.653L98.899,45.027L98.45,45.027Z" style="fill:rgb(52,190,189);fill-rule:nonzero;"/>
                <path d="M98.002,45.027L96.541,13.653L96.989,13.653L98.45,45.027L98.002,45.027Z" style="fill:rgb(50,190,187);fill-rule:nonzero;"/>
                <path d="M97.554,45.027L96.092,13.653L96.541,13.653L98.002,45.027L97.554,45.027Z" style="fill:rgb(47,190,188);fill-rule:nonzero;"/>
                <path d="M97.105,45.027L95.644,13.653L96.092,13.653L97.554,45.027L97.105,45.027Z" style="fill:rgb(45,189,187);fill-rule:nonzero;"/>
                <path d="M96.657,45.027L95.195,13.653L95.644,13.653L97.105,45.027L96.657,45.027Z" style="fill:rgb(43,189,186);fill-rule:nonzero;"/>
                <path d="M96.208,45.027L94.747,13.653L95.195,13.653L96.657,45.027L96.208,45.027Z" style="fill:rgb(36,188,187);fill-rule:nonzero;"/>
                <path d="M95.76,45.027L94.298,13.653L94.747,13.653L96.208,45.027L95.76,45.027Z" style="fill:rgb(33,188,185);fill-rule:nonzero;"/>
                <path d="M95.311,45.027L93.85,13.653L94.298,13.653L95.76,45.027L95.311,45.027Z" style="fill:rgb(24,187,185);fill-rule:nonzero;"/>
                <path d="M94.863,45.027L93.401,13.653L93.85,13.653L95.311,45.027L94.863,45.027Z" style="fill:rgb(22,186,185);fill-rule:nonzero;"/>
                <path d="M94.414,45.027L92.953,13.653L93.401,13.653L94.863,45.027L94.414,45.027Z" style="fill:rgb(17,186,183);fill-rule:nonzero;"/>
                <path d="M93.966,45.027L92.504,13.653L92.953,13.653L94.414,45.027L93.966,45.027Z" style="fill:rgb(3,187,184);fill-rule:nonzero;"/>
                <path d="M93.517,45.027L92.056,13.653L92.504,13.653L93.966,45.027L93.517,45.027Z" style="fill:rgb(6,184,182);fill-rule:nonzero;"/>
                <path d="M93.069,45.027L91.608,13.653L92.056,13.653L93.517,45.027L93.069,45.027Z" style="fill:rgb(6,184,182);fill-rule:nonzero;"/>
                <path d="M92.62,45.027L91.159,13.653L91.608,13.653L93.069,45.027L92.62,45.027Z" style="fill:rgb(6,184,182);fill-rule:nonzero;"/>
                <path d="M92.172,45.027L90.711,13.653L91.159,13.653L92.62,45.027L92.172,45.027Z" style="fill:rgb(0,183,182);fill-rule:nonzero;"/>
                <path d="M91.723,45.027L90.262,13.653L90.711,13.653L92.172,45.027L91.723,45.027Z" style="fill:rgb(3,183,181);fill-rule:nonzero;"/>
                <path d="M91.275,45.027L89.814,13.653L90.262,13.653L91.723,45.027L91.275,45.027Z" style="fill:rgb(4,183,180);fill-rule:nonzero;"/>
                <path d="M90.826,45.027L89.365,13.653L89.814,13.653L91.275,45.027L90.826,45.027Z" style="fill:rgb(0,182,181);fill-rule:nonzero;"/>
                <path d="M90.378,45.027L88.917,13.653L89.365,13.653L90.826,45.027L90.378,45.027Z" style="fill:rgb(0,182,181);fill-rule:nonzero;"/>
                <path d="M89.929,45.027L88.468,13.653L88.917,13.653L90.378,45.027L89.929,45.027Z" style="fill:rgb(0,182,181);fill-rule:nonzero;"/>
                <path d="M89.481,45.027L88.02,13.653L88.468,13.653L89.929,45.027L89.481,45.027ZM89.033,45.027L87.571,13.653L88.02,13.653L89.481,45.027L89.033,45.027Z" style="fill:rgb(3,182,180);fill-rule:nonzero;"/>
                <path d="M88.584,45.027L87.123,13.653L87.571,13.653L89.033,45.027L88.584,45.027Z" style="fill:rgb(5,182,178);fill-rule:nonzero;"/>
                <path d="M88.136,45.027L86.674,13.653L87.123,13.653L88.584,45.027L88.136,45.027Z" style="fill:rgb(1,181,177);fill-rule:nonzero;"/>
                <path d="M87.687,45.027L86.673,23.244L86.673,13.653L86.674,13.653L88.136,45.027L87.687,45.027ZM87.239,45.027L86.673,32.873L86.673,23.244L87.687,45.027L87.239,45.027Z" style="fill:rgb(1,181,177);fill-rule:nonzero;"/>
                <path d="M86.79,45.027L86.673,42.502L86.673,32.873L87.239,45.027L86.79,45.027Z" style="fill:rgb(0,180,177);fill-rule:nonzero;"/>
                <path d="M86.673,42.502L86.79,45.027L86.673,45.027L86.673,42.502Z" style="fill:rgb(0,180,177);fill-rule:nonzero;"/>
            </g>
        </g>
        <g transform="matrix(0.165845,0,0,0.165845,-0.0568892,18.8474)">
            <path d="M30.353,13.486L14.218,29.742L30.473,45.877L44.225,45.826L29.804,31.521L101.013,31.257L94.772,37.54L101.648,37.515L109.716,29.387L101.588,21.32L94.712,21.345L101,27.583L29.791,27.847L44.104,13.435L30.353,13.486Z" style="fill:rgb(36,75,90);fill-rule:nonzero;"/>
        </g>
    </g>
</svg>
