<?xml version="1.0" encoding="UTF-8" standalone="no"?>
<!DOCTYPE svg PUBLIC "-//W3C//DTD SVG 1.1//EN" "http://www.w3.org/Graphics/SVG/1.1/DTD/svg11.dtd">
<svg width="100%" height="100%" viewBox="0 0 64 64" version="1.1" xmlns="http://www.w3.org/2000/svg" xmlns:xlink="http://www.w3.org/1999/xlink" xml:space="preserve" xmlns:serif="http://www.serif.com/" style="fill-rule:evenodd;clip-rule:evenodd;stroke-linejoin:round;stroke-miterlimit:2;">
    <g transform="matrix(0.223543,0,0,0.223543,3.83354,2.23537e-10)">
        <g transform="matrix(0.984375,0,0,0.984375,0,-1.5624e-11)">
            <path d="M2.054,218.187C3.374,220.534 5.281,222.295 7.629,223.615L120.591,288.752C125.286,291.539 131.007,291.539 135.555,288.752L248.518,223.615C253.213,220.974 256,215.986 256,210.558L256,80.284C256,74.856 253.213,69.868 248.518,67.228L135.555,2.091C130.861,-0.697 125.139,-0.697 120.591,2.091L7.629,67.228C2.787,69.868 0,74.856 0,80.284L0,210.705C0,213.346 0.587,215.84 2.054,218.187" style="fill:rgb(0,150,57);fill-rule:nonzero;"/>
        </g>
        <path d="M91.837,195.154C91.837,203.223 85.382,209.678 77.313,209.678C69.245,209.678 62.79,203.223 62.79,195.154L62.79,95.542C62.79,87.766 69.685,81.458 79.221,81.458C86.116,81.458 94.185,84.245 99.026,90.26L103.427,95.542L164.163,168.16L164.163,95.835C164.163,87.766 170.618,81.311 178.687,81.311C186.755,81.311 193.21,87.766 193.21,95.835L193.21,195.448C193.21,203.223 186.315,209.531 176.779,209.531C169.884,209.531 161.815,206.744 156.974,200.729L91.837,122.975L91.837,195.154Z" style="fill:white;fill-rule:nonzero;"/>
    </g>
</svg>
