<?xml version="1.0" encoding="UTF-8" standalone="no"?>
<!DOCTYPE svg PUBLIC "-//W3C//DTD SVG 1.1//EN" "http://www.w3.org/Graphics/SVG/1.1/DTD/svg11.dtd">
<svg width="100%" height="100%" viewBox="0 0 64 64" version="1.1" xmlns="http://www.w3.org/2000/svg" xmlns:xlink="http://www.w3.org/1999/xlink" xml:space="preserve" xmlns:serif="http://www.serif.com/" style="fill-rule:evenodd;clip-rule:evenodd;stroke-linejoin:round;stroke-miterlimit:2;">
    <g transform="matrix(0.125,0,0,0.125,-2.84217e-14,27.8401)">
        <path d="M221.034,43.303L254.866,43.303L236.977,14.522L204.144,66.559L189.202,66.559L229.137,4.051C230.873,1.526 233.767,0 236.977,0C240.081,0 242.975,1.473 244.659,3.946L284.752,66.559L269.809,66.559L262.759,54.931L228.506,54.931L221.034,43.303ZM376.251,54.931L376.251,0.631L363.571,0.631L363.571,60.245C363.571,61.876 364.202,63.455 365.412,64.665C366.622,65.875 368.253,66.559 370.042,66.559L427.867,66.559L435.339,54.931L376.251,54.931ZM166.472,45.197C178.784,45.197 188.781,35.253 188.781,22.941C188.781,10.628 178.784,0.631 166.472,0.631L110.998,0.631L110.998,66.559L123.674,66.559L123.674,12.26L165.63,12.26C171.523,12.26 176.258,17.048 176.258,22.941C176.258,28.833 171.523,33.622 165.63,33.622L129.883,33.569L167.734,66.559L186.15,66.559L160.684,45.197L166.472,45.197ZM32.969,66.559C14.769,66.559 0,51.827 0,33.622C0,15.416 14.769,0.631 32.969,0.631L71.289,0.631C89.494,0.631 104.253,15.416 104.253,33.622C104.253,51.827 89.494,66.559 71.289,66.559L32.969,66.559ZM70.437,54.931C82.228,54.931 91.778,45.407 91.778,33.622C91.778,21.836 82.228,12.26 70.437,12.26L33.816,12.26C22.03,12.26 12.475,21.836 12.475,33.622C12.475,45.407 22.03,54.931 33.816,54.931L70.437,54.931ZM311.218,66.559C293.013,66.559 278.228,51.827 278.228,33.622C278.228,15.416 293.013,0.631 311.218,0.631L356.731,0.631L349.312,12.26L312.06,12.26C300.274,12.26 290.698,21.836 290.698,33.622C290.698,45.407 300.274,54.931 312.06,54.931L357.783,54.931L350.311,66.559L311.218,66.559ZM466.277,54.931C456.543,54.931 448.282,48.407 445.757,39.409L499.951,39.409L507.422,27.781L445.757,27.781C448.282,18.836 456.543,12.26 466.277,12.26L503.476,12.26L511,0.631L465.435,0.631C447.23,0.631 432.445,15.416 432.445,33.622C432.445,51.827 447.23,66.559 465.435,66.559L504.529,66.559L512,54.931L466.277,54.931Z" style="fill:rgb(234,27,34);fill-rule:nonzero;"/>
    </g>
</svg>
