<?xml version="1.0" encoding="UTF-8" standalone="no"?>
<!DOCTYPE svg PUBLIC "-//W3C//DTD SVG 1.1//EN" "http://www.w3.org/Graphics/SVG/1.1/DTD/svg11.dtd">
<svg width="100%" height="100%" viewBox="0 0 64 64" version="1.1" xmlns="http://www.w3.org/2000/svg" xmlns:xlink="http://www.w3.org/1999/xlink" xml:space="preserve" xmlns:serif="http://www.serif.com/" style="fill-rule:evenodd;clip-rule:evenodd;stroke-linejoin:round;stroke-miterlimit:2;">
    <g transform="matrix(0.25,0,0,0.25,-7.27738e-11,1.62077)">
        <path d="M177.381,169.733C186.828,168.755 193.995,160.611 193.669,150.837C193.344,141.064 185.199,133.245 175.426,133.245L174.775,133.245C164.676,133.571 156.857,142.041 157.183,152.14C157.509,157.027 159.464,161.262 162.395,164.194C151.319,186.022 134.379,201.985 108.969,215.342C91.703,224.464 73.786,227.722 55.868,225.442C41.209,223.487 29.807,216.971 22.64,206.22C12.215,190.257 11.238,172.991 20.034,155.724C26.223,143.344 35.996,134.222 42.186,129.661C40.883,125.426 38.928,118.259 37.951,113.047C-9.286,147.254 -4.399,193.515 9.935,215.342C20.685,231.631 42.512,241.731 66.619,241.731C73.134,241.731 79.65,241.079 86.165,239.45C127.864,231.306 159.464,206.546 177.381,169.733ZM234.717,129.336C209.958,100.341 173.472,84.378 131.773,84.378L126.561,84.378C123.629,78.514 117.439,74.604 110.598,74.604L109.946,74.604C99.848,74.93 92.029,83.4 92.355,93.5C92.681,103.273 100.825,111.092 110.598,111.092L111.249,111.092C118.416,110.766 124.606,106.205 127.212,100.015L133.076,100.015C157.835,100.015 181.29,107.182 202.465,121.191C218.754,131.942 230.482,145.951 236.997,162.891C242.535,176.574 242.209,189.931 236.345,201.334C227.224,218.6 211.913,228.048 191.715,228.048C178.684,228.048 166.305,224.138 159.789,221.206C156.206,224.464 149.69,229.677 145.13,232.935C159.138,239.45 173.472,243.034 187.154,243.034C218.428,243.034 241.558,225.767 250.354,208.501C259.801,189.605 259.149,157.027 234.717,129.336ZM69.225,175.271C69.551,185.045 77.695,192.863 87.468,192.863L88.12,192.863C98.219,192.538 106.037,184.067 105.711,173.968C105.386,164.194 97.241,156.376 87.468,156.376L86.817,156.376C86.165,156.376 85.188,156.376 84.536,156.701C71.18,134.548 65.642,110.44 67.596,84.378C68.899,64.831 75.415,47.89 86.817,33.881C96.264,21.827 114.507,15.963 126.886,15.638C161.418,14.986 176.078,57.989 177.055,75.256C181.29,76.233 188.457,78.514 193.344,80.143C189.434,27.366 156.857,0 125.583,0C96.264,0 69.225,21.176 58.475,52.451C43.489,94.151 53.262,134.222 71.505,165.823C69.877,168.104 68.899,171.687 69.225,175.271Z" style="fill:rgb(118,74,188);fill-rule:nonzero;"/>
    </g>
</svg>
