<?xml version="1.0" encoding="UTF-8" standalone="no"?>
<!DOCTYPE svg PUBLIC "-//W3C//DTD SVG 1.1//EN" "http://www.w3.org/Graphics/SVG/1.1/DTD/svg11.dtd">
<svg width="100%" height="100%" viewBox="0 0 64 64" version="1.1" xmlns="http://www.w3.org/2000/svg" xmlns:xlink="http://www.w3.org/1999/xlink" xml:space="preserve" xmlns:serif="http://www.serif.com/" style="fill-rule:evenodd;clip-rule:evenodd;stroke-linejoin:round;stroke-miterlimit:2;">
    <g transform="matrix(0.25,0,0,0.25,0,0)">
        <g transform="matrix(1,0,0,-1,0,256)">
            <path d="M0,256L0,0L256,0L256,256L0,256Z" style="fill:rgb(0,122,204);fill-rule:nonzero;"/>
        </g>
        <g transform="matrix(-1,7.65714e-16,-7.65714e-16,-1,203.269,352.286)">
            <path d="M146.658,223.437L146.739,212.953L113.419,212.953L113.419,118.274L89.851,118.274L89.851,212.953L56.53,212.953L56.53,223.234C56.53,228.923 56.652,233.677 56.814,233.799C56.936,233.961 77.213,234.043 101.797,234.002L146.536,233.88L146.658,223.437Z" style="fill:white;fill-rule:nonzero;"/>
        </g>
        <g transform="matrix(1,0,0,-1,0,352.38)">
            <path d="M206.567,234.272C213.068,232.647 218.026,229.762 222.577,225.048C224.934,222.529 228.428,217.937 228.713,216.84C228.794,216.515 217.66,209.038 210.915,204.852C210.671,204.69 209.696,205.746 208.598,207.372C205.307,212.167 201.853,214.239 196.57,214.605C188.809,215.133 183.811,211.07 183.852,204.284C183.852,202.292 184.136,201.114 184.949,199.489C186.656,195.953 189.825,193.84 199.781,189.533C218.107,181.65 225.949,176.449 230.826,169.053C236.271,160.804 237.49,147.638 233.792,137.845C229.729,127.199 219.651,119.966 205.469,117.569C201.081,116.797 190.678,116.918 185.965,117.772C175.684,119.6 165.932,124.68 159.918,131.344C157.561,133.945 152.969,140.731 153.254,141.218C153.376,141.381 154.432,142.031 155.61,142.722C156.748,143.372 161.056,145.851 165.119,148.207L172.474,152.474L174.018,150.198C176.172,146.907 180.885,142.397 183.73,140.893C191.897,136.586 203.113,137.195 208.639,142.153C210.996,144.306 211.971,146.541 211.971,149.833C211.971,152.799 211.605,154.099 210.061,156.334C208.07,159.179 204.007,161.576 192.466,166.574C179.26,172.263 173.571,175.798 168.37,181.406C165.363,184.657 162.518,189.858 161.34,194.206C160.365,197.823 160.121,206.884 160.893,210.541C163.616,223.301 173.246,232.2 187.143,234.841C191.654,235.694 202.137,235.369 206.567,234.272Z" style="fill:white;fill-rule:nonzero;"/>
        </g>
    </g>
</svg>
